<?xml version="1.0" encoding="UTF-8" standalone="no"?><!DOCTYPE svg PUBLIC "-//W3C//DTD SVG 1.1//EN" "http://www.w3.org/Graphics/SVG/1.1/DTD/svg11.dtd"><svg width="100%" height="100%" viewBox="0 0 351 98" version="1.1" xmlns="http://www.w3.org/2000/svg" xmlns:xlink="http://www.w3.org/1999/xlink" xml:space="preserve" xmlns:serif="http://www.serif.com/" style="fill-rule:evenodd;clip-rule:evenodd;"><g><g><path d="M239.397,40.887c-3.512,-0.091 -6.97,0.891 -9.91,2.815l0.6,-17.5l18.677,0c0.37,0 0.616,-0.183 0.616,-0.489l0,-0.121c0,-0.368 -0.246,-0.551 -0.616,-0.551l-19.172,0c-0.337,-0.034 -0.642,0.214 -0.678,0.551l-0.783,18.472c-0.117,0.405 0.063,0.841 0.431,1.047l0.123,0.062c0.246,0.123 0.627,-0.074 1.047,-0.308c1.953,-1.087 4.227,-3.129 9.725,-2.759c7.683,0.518 11.7,5.187 11.33,11.584c-0.371,6.482 -6.562,10.028 -12.378,10.028c-4.392,0.011 -8.586,-1.852 -11.522,-5.118c-0.344,-0.393 -0.678,-0.431 -0.986,-0.123l-0.062,0.062c-0.308,0.308 -0.172,0.6 0.123,0.924c3.125,3.62 7.728,5.636 12.508,5.479c7.071,-0.178 13.311,-4.513 13.6,-11.251c0.283,-6.551 -4.462,-12.58 -12.678,-12.807l0.005,0.003Z" style="fill:#1f9ece;fill-rule:nonzero;stroke:#1f9ece;stroke-width:0.5px;"/><path d="M278.541,65c5.363,0.137 10.615,-1.568 14.875,-4.829c0.291,-0.233 0.448,-0.595 0.42,-0.967l0,-14.216c-0.005,-0.266 -0.225,-0.483 -0.491,-0.483c-0.017,0 -0.034,0.001 -0.051,0.003l-14.413,0c-0.017,-0.002 -0.035,-0.003 -0.052,-0.003c-0.267,0 -0.487,0.216 -0.493,0.483l0,0.12c-0.001,0.012 -0.001,0.024 -0.001,0.037c0,0.278 0.229,0.507 0.507,0.507c0.013,0 0.026,-0.001 0.039,-0.002l13.693,0l0,13.611c-1.21,1.029 -5.928,4.6 -13.912,4.6c-10.4,0 -18.438,-8.591 -18.438,-19.231c0,-10.64 7.852,-19.238 18.316,-19.238c4.879,-0.062 9.609,1.71 13.247,4.962c0.271,0.286 0.724,0.312 1.027,0.06l0.06,-0.06c0.116,-0.098 0.183,-0.242 0.183,-0.393c0,-0.151 -0.067,-0.295 -0.183,-0.393c-3.879,-3.569 -9.006,-5.479 -14.274,-5.317c-11.432,0 -19.639,8.946 -19.639,20.38c0,11.434 8.388,20.373 19.579,20.373l0.001,-0.004Z" style="fill:#1f9ece;fill-rule:nonzero;stroke:#1f9ece;stroke-width:0.5px;"/></g><g><rect x="0.685" y="35.048" width="0.986" height="29.161" style="fill:#231f20;stroke:#231f20;stroke-width:0.5px;"/><path d="M25.44,35.193c2.039,-0.045 4.05,0.488 5.8,1.536c1.699,1.068 3.049,2.61 3.884,4.435c0.976,2.166 1.452,4.525 1.391,6.9l0,16.58l-0.986,0l0,-16.581c0.057,-2.191 -0.368,-4.368 -1.246,-6.377c-0.753,-1.688 -1.995,-3.112 -3.565,-4.087c-1.648,-0.974 -3.536,-1.466 -5.45,-1.42c-2.018,-0.017 -4.005,0.492 -5.766,1.478c-1.827,1.055 -3.301,2.627 -4.236,4.518c-1.131,2.337 -1.678,4.913 -1.594,7.508l0,14.961l-0.986,0l0,-29.161l0.986,0l0,8.87c0.501,-1.857 1.39,-3.586 2.609,-5.073c1.11,-1.335 2.521,-2.388 4.116,-3.073c1.595,-0.678 3.311,-1.024 5.044,-1.015l-0.001,0.001Z" style="fill:#231f20;fill-rule:nonzero;stroke:#231f20;stroke-width:0.5px;"/><path d="M59.471,35.193c2.039,-0.045 4.05,0.488 5.8,1.536c1.697,1.069 3.045,2.611 3.878,4.435c0.976,2.166 1.452,4.525 1.391,6.9l0,16.58l-0.981,0l0,-16.581c0.057,-2.191 -0.368,-4.368 -1.246,-6.377c-0.753,-1.688 -1.995,-3.111 -3.564,-4.087c-1.648,-0.974 -3.536,-1.466 -5.45,-1.42c-2.018,-0.018 -4.007,0.492 -5.768,1.478c-1.826,1.055 -3.299,2.627 -4.234,4.518c-1.131,2.337 -1.678,4.913 -1.594,7.508l0,14.961l-0.986,0l0,-29.161l0.986,0l0,8.87c0.501,-1.857 1.39,-3.586 2.609,-5.073c1.11,-1.335 2.521,-2.388 4.116,-3.073c1.595,-0.678 3.311,-1.024 5.044,-1.015l-0.001,0.001Z" style="fill:#231f20;fill-rule:nonzero;stroke:#231f20;stroke-width:0.5px;"/><path d="M92.951,64.934c-2.534,0.025 -5.029,-0.636 -7.218,-1.913c-2.172,-1.262 -3.956,-3.095 -5.16,-5.3c-1.275,-2.336 -1.924,-4.963 -1.884,-7.624c-0.038,-2.671 0.611,-5.308 1.884,-7.657c1.197,-2.218 2.982,-4.064 5.16,-5.334c4.479,-2.548 9.986,-2.548 14.465,0c2.165,1.276 3.94,3.121 5.131,5.334c1.273,2.348 1.921,4.983 1.884,7.653c0.04,2.661 -0.609,5.288 -1.884,7.624c-1.198,2.199 -2.972,4.031 -5.131,5.3c-2.196,1.285 -4.702,1.948 -7.247,1.917Zm0,-0.986c4.774,0.044 9.199,-2.56 11.479,-6.754c1.178,-2.179 1.776,-4.624 1.739,-7.1c0.042,-2.496 -0.557,-4.961 -1.739,-7.16c-2.294,-4.187 -6.704,-6.8 -11.479,-6.8c-4.775,0 -9.185,2.613 -11.479,6.8c-1.182,2.199 -1.781,4.664 -1.739,7.16c-0.037,2.476 0.561,4.921 1.739,7.1c2.28,4.194 6.705,6.798 11.479,6.754Z" style="fill:#231f20;fill-rule:nonzero;stroke:#231f20;stroke-width:0.5px;"/><path d="M137.765,35.482l-13.334,29.335l-0.522,0l-13.276,-29.335l1.1,0l12.464,27.6l12.407,-27.6l1.161,0Z" style="fill:#231f20;fill-rule:nonzero;stroke:#231f20;stroke-width:0.5px;"/><path d="M163.911,64.643c-0.007,-2.319 -0.049,-4.676 -0.087,-7.073c-0.831,2.219 -2.369,4.104 -4.377,5.363c-3.877,2.248 -8.571,2.621 -12.754,1.015c-1.431,-0.58 -2.668,-1.556 -3.565,-2.812c-1.728,-2.697 -1.694,-6.179 0.087,-8.841c1.048,-1.379 2.48,-2.418 4.116,-2.986c2.148,-0.767 4.42,-1.131 6.7,-1.073c1.746,-0.016 3.49,0.101 5.218,0.348c1.526,0.237 3.036,0.566 4.522,0.986l0,-4.17c0.046,-1.71 -0.365,-3.401 -1.188,-4.9c-0.795,-1.374 -1.988,-2.476 -3.42,-3.16c-1.641,-0.767 -3.437,-1.143 -5.247,-1.1c-3.526,-0.037 -6.962,1.127 -9.74,3.3l-0.522,-0.812c2.92,-2.299 6.541,-3.527 10.257,-3.478c1.982,-0.048 3.947,0.369 5.739,1.217c1.576,0.769 2.888,1.99 3.768,3.507c0.923,1.656 1.384,3.531 1.334,5.426l0,9.682c0,6.4 0.04,6.732 0.029,9.566l-0.87,0l0,-0.005Zm-11.74,-0.7c2.077,0.037 4.134,-0.42 6,-1.333c1.664,-0.804 3.077,-2.047 4.087,-3.594c0.96,-1.488 1.482,-3.216 1.507,-4.986l0,-3.475c-3.153,-0.976 -6.44,-1.446 -9.74,-1.391c-2.089,-0.056 -4.172,0.268 -6.145,0.957c-1.479,0.506 -2.779,1.433 -3.739,2.667c-0.835,1.153 -1.272,2.547 -1.246,3.971c-0.04,1.372 0.356,2.722 1.131,3.855c0.816,1.111 1.932,1.966 3.218,2.464c1.569,0.612 3.244,0.908 4.928,0.87l-0.001,-0.005Z" style="fill:#231f20;fill-rule:nonzero;stroke:#231f20;stroke-width:0.5px;"/><path d="M188.076,63.015c0.158,-0.085 0.7,0.719 0.275,0.937c-1.323,0.663 -2.785,0.999 -4.265,0.982c-2.08,0.116 -4.121,-0.616 -5.652,-2.029c-1.453,-1.568 -2.198,-3.667 -2.058,-5.8l0,-19.767l-4.493,0l0.232,-0.986l4.261,0l0,-10.261l0.986,0l0,10.261l10.29,0l0,0.986l-10.29,0l0,19.769c-0.123,1.866 0.528,3.702 1.8,5.073c1.335,1.231 3.115,1.869 4.928,1.768c1.206,0.021 2.402,-0.218 3.507,-0.7c0.161,-0.072 0.322,-0.152 0.482,-0.237l-0.003,0.004Z" style="fill:#231f20;fill-rule:nonzero;stroke:#231f20;stroke-width:0.5px;"/><path d="M194.146,50.44l0,0.464c0,2.745 0.107,4.3 1.188,6.406c1.016,2.036 2.596,3.737 4.551,4.9c2.05,1.185 4.386,1.787 6.754,1.739c2.091,0.05 4.165,-0.387 6.058,-1.275c1.876,-0.981 3.51,-2.367 4.783,-4.058l0.754,0.638c-1.35,1.808 -3.094,3.285 -5.1,4.319c-2.031,0.947 -4.253,1.413 -6.493,1.362c-2.559,0.048 -5.084,-0.604 -7.3,-1.884c-2.111,-1.24 -3.822,-3.062 -4.928,-5.247c-1.159,-2.241 -1.3,-3.96 -1.3,-6.9c-0.017,-2.558 0.58,-5.083 1.739,-7.363c1.092,-2.202 2.741,-4.081 4.783,-5.45c2.033,-1.353 4.428,-2.061 6.87,-2.029c2.396,-0.043 4.753,0.612 6.783,1.884c1.959,1.243 3.543,2.997 4.58,5.073c1.093,2.175 1.65,4.581 1.623,7.015l-0.058,0.406l-25.287,0Zm12.348,-13.392c-2.128,-0.02 -4.219,0.563 -6.029,1.681c-1.81,1.114 -3.306,2.67 -4.348,4.522c-1.09,1.921 -1.743,4.059 -1.913,6.261l24.23,0c-0.047,-2.2 -0.592,-4.36 -1.594,-6.319c-0.944,-1.849 -2.378,-3.403 -4.145,-4.493c-1.869,-1.126 -4.019,-1.699 -6.2,-1.652l-0.001,0Z" style="fill:#231f20;fill-rule:nonzero;stroke:#231f20;stroke-width:0.5px;"/><rect x="0.25" y="24.306" width="1.739" height="3.073" style="fill:#231f20;stroke:#231f20;stroke-width:0.5px;"/></g><g><g><path d="M4.5,83.188l-4.182,0l0,-1.088l9.622,0l0,1.088l-4.182,0l0,10.812l-1.258,0l0,-10.812Z" style="fill:#3d3d3d;fill-rule:nonzero;"/><path d="M17.097,84.99c1.122,0 2.014,0.326 2.677,0.978c0.663,0.651 0.995,1.6 0.995,2.847l0,5.185l-1.207,0l0,-5.066c0,-0.929 -0.232,-1.638 -0.697,-2.125c-0.465,-0.487 -1.128,-0.731 -1.989,-0.731c-0.963,0 -1.726,0.286 -2.287,0.859c-0.561,0.572 -0.841,1.362 -0.841,2.371l0,4.692l-1.207,0l0,-12.614l1.207,0l0,5.236c0.329,-0.521 0.782,-0.924 1.36,-1.207c0.578,-0.283 1.241,-0.425 1.989,-0.425Z" style="fill:#3d3d3d;fill-rule:nonzero;"/><path d="M32.72,89.903l-7.48,0c0.068,0.929 0.425,1.68 1.071,2.252c0.646,0.573 1.462,0.859 2.448,0.859c0.555,0 1.065,-0.099 1.53,-0.297c0.465,-0.199 0.867,-0.491 1.207,-0.876l0.68,0.782c-0.397,0.476 -0.892,0.839 -1.487,1.088c-0.595,0.249 -1.25,0.374 -1.964,0.374c-0.918,0 -1.731,-0.195 -2.439,-0.586c-0.709,-0.391 -1.261,-0.933 -1.658,-1.624c-0.397,-0.691 -0.595,-1.473 -0.595,-2.346c0,-0.873 0.19,-1.655 0.57,-2.346c0.379,-0.691 0.901,-1.23 1.564,-1.615c0.663,-0.385 1.408,-0.578 2.235,-0.578c0.827,0 1.57,0.193 2.227,0.578c0.657,0.385 1.173,0.921 1.547,1.607c0.374,0.685 0.561,1.47 0.561,2.354l-0.017,0.374Zm-4.318,-3.876c-0.861,0 -1.584,0.275 -2.167,0.825c-0.584,0.549 -0.916,1.266 -0.995,2.15l6.341,0c-0.079,-0.884 -0.411,-1.601 -0.994,-2.15c-0.584,-0.55 -1.312,-0.825 -2.185,-0.825Z" style="fill:#3d3d3d;fill-rule:nonzero;"/><path d="M43.685,86.979c1.723,0 2.978,0.309 3.766,0.927c0.787,0.617 1.181,1.481 1.181,2.592c0,0.691 -0.161,1.309 -0.484,1.853c-0.323,0.544 -0.808,0.972 -1.454,1.284c-0.646,0.311 -1.439,0.467 -2.38,0.467c-0.85,0 -1.657,-0.139 -2.422,-0.416c-0.765,-0.278 -1.38,-0.649 -1.845,-1.114l0.595,-0.969c0.397,0.408 0.918,0.739 1.564,0.994c0.646,0.255 1.343,0.383 2.091,0.383c0.986,0 1.748,-0.221 2.287,-0.663c0.538,-0.442 0.807,-1.031 0.807,-1.768c0,-0.816 -0.303,-1.434 -0.909,-1.853c-0.607,-0.419 -1.63,-0.629 -3.069,-0.629l-2.533,0l0.612,-5.967l6.511,0l0,1.088l-5.44,0l-0.408,3.791l1.53,0Z" style="fill:#3d3d3d;fill-rule:nonzero;"/><path d="M60.464,88.05l1.207,0l0,4.539c-0.555,0.487 -1.213,0.861 -1.972,1.122c-0.759,0.261 -1.558,0.391 -2.397,0.391c-1.19,0 -2.261,-0.261 -3.213,-0.782c-0.952,-0.521 -1.7,-1.244 -2.244,-2.168c-0.544,-0.923 -0.816,-1.957 -0.816,-3.102c0,-1.145 0.272,-2.179 0.816,-3.102c0.544,-0.924 1.292,-1.647 2.244,-2.168c0.952,-0.521 2.029,-0.782 3.23,-0.782c0.907,0 1.74,0.145 2.499,0.434c0.759,0.289 1.4,0.716 1.921,1.283l-0.782,0.799c-0.941,-0.929 -2.136,-1.394 -3.587,-1.394c-0.963,0 -1.833,0.213 -2.609,0.638c-0.777,0.425 -1.386,1.014 -1.828,1.767c-0.442,0.754 -0.663,1.596 -0.663,2.525c0,0.929 0.221,1.768 0.663,2.516c0.442,0.748 1.048,1.337 1.819,1.768c0.771,0.431 1.638,0.646 2.601,0.646c1.224,0 2.261,-0.306 3.111,-0.918l0,-4.012Z" style="fill:#3d3d3d;fill-rule:nonzero;"/><path d="M76.58,94.102c-1.179,0 -2.247,-0.264 -3.204,-0.791c-0.958,-0.527 -1.706,-1.249 -2.244,-2.167c-0.539,-0.918 -0.808,-1.949 -0.808,-3.094c0,-1.145 0.269,-2.176 0.808,-3.094c0.538,-0.918 1.286,-1.641 2.244,-2.168c0.957,-0.527 2.025,-0.79 3.204,-0.79c1.179,0 2.241,0.261 3.188,0.782c0.946,0.521 1.691,1.244 2.235,2.168c0.544,0.923 0.816,1.957 0.816,3.102c0,1.145 -0.272,2.179 -0.816,3.102c-0.544,0.924 -1.289,1.647 -2.235,2.168c-0.947,0.521 -2.009,0.782 -3.188,0.782Zm0,-1.122c0.941,0 1.791,-0.213 2.55,-0.638c0.759,-0.425 1.354,-1.014 1.785,-1.768c0.431,-0.753 0.646,-1.595 0.646,-2.524c0,-0.929 -0.215,-1.771 -0.646,-2.525c-0.431,-0.753 -1.026,-1.343 -1.785,-1.768c-0.759,-0.425 -1.609,-0.637 -2.55,-0.637c-0.941,0 -1.793,0.212 -2.558,0.637c-0.765,0.425 -1.366,1.015 -1.802,1.768c-0.437,0.754 -0.655,1.596 -0.655,2.525c0,0.929 0.218,1.771 0.655,2.524c0.436,0.754 1.037,1.343 1.802,1.768c0.765,0.425 1.617,0.638 2.558,0.638Z" style="fill:#3d3d3d;fill-rule:nonzero;"/><path d="M90.843,84.99c0.839,0 1.598,0.19 2.278,0.57c0.68,0.379 1.213,0.915 1.598,1.606c0.385,0.691 0.578,1.479 0.578,2.363c0,0.895 -0.193,1.689 -0.578,2.38c-0.385,0.691 -0.915,1.227 -1.59,1.607c-0.674,0.379 -1.436,0.569 -2.286,0.569c-0.725,0 -1.38,-0.15 -1.963,-0.45c-0.584,-0.301 -1.063,-0.74 -1.437,-1.318l0,4.981l-1.207,0l0,-12.24l1.156,0l0,1.768c0.363,-0.589 0.841,-1.043 1.436,-1.36c0.595,-0.317 1.267,-0.476 2.015,-0.476Zm-0.085,8.024c0.623,0 1.19,-0.144 1.7,-0.433c0.51,-0.289 0.909,-0.7 1.198,-1.233c0.289,-0.533 0.434,-1.139 0.434,-1.819c0,-0.68 -0.145,-1.283 -0.434,-1.81c-0.289,-0.527 -0.688,-0.938 -1.198,-1.233c-0.51,-0.295 -1.077,-0.442 -1.7,-0.442c-0.635,0 -1.204,0.147 -1.709,0.442c-0.504,0.295 -0.901,0.706 -1.19,1.233c-0.289,0.527 -0.433,1.13 -0.433,1.81c0,0.68 0.144,1.286 0.433,1.819c0.289,0.533 0.686,0.944 1.19,1.233c0.505,0.289 1.074,0.433 1.709,0.433Z" style="fill:#3d3d3d;fill-rule:nonzero;"/><path d="M103.219,84.99c0.839,0 1.598,0.19 2.278,0.57c0.68,0.379 1.213,0.915 1.598,1.606c0.385,0.691 0.578,1.479 0.578,2.363c0,0.895 -0.193,1.689 -0.578,2.38c-0.385,0.691 -0.915,1.227 -1.59,1.607c-0.674,0.379 -1.436,0.569 -2.286,0.569c-0.725,0 -1.38,-0.15 -1.963,-0.45c-0.584,-0.301 -1.063,-0.74 -1.437,-1.318l0,4.981l-1.207,0l0,-12.24l1.156,0l0,1.768c0.363,-0.589 0.841,-1.043 1.436,-1.36c0.595,-0.317 1.267,-0.476 2.015,-0.476Zm-0.085,8.024c0.623,0 1.19,-0.144 1.7,-0.433c0.51,-0.289 0.909,-0.7 1.198,-1.233c0.289,-0.533 0.434,-1.139 0.434,-1.819c0,-0.68 -0.145,-1.283 -0.434,-1.81c-0.289,-0.527 -0.688,-0.938 -1.198,-1.233c-0.51,-0.295 -1.077,-0.442 -1.7,-0.442c-0.635,0 -1.204,0.147 -1.709,0.442c-0.504,0.295 -0.901,0.706 -1.19,1.233c-0.289,0.527 -0.433,1.13 -0.433,1.81c0,0.68 0.144,1.286 0.433,1.819c0.289,0.533 0.686,0.944 1.19,1.233c0.505,0.289 1.074,0.433 1.709,0.433Z" style="fill:#3d3d3d;fill-rule:nonzero;"/><path d="M114.643,94.085c-0.861,0 -1.638,-0.196 -2.329,-0.587c-0.691,-0.391 -1.235,-0.932 -1.632,-1.623c-0.397,-0.691 -0.595,-1.473 -0.595,-2.346c0,-0.873 0.198,-1.655 0.595,-2.346c0.397,-0.691 0.941,-1.23 1.632,-1.615c0.691,-0.385 1.468,-0.578 2.329,-0.578c0.861,0 1.638,0.193 2.329,0.578c0.691,0.385 1.233,0.924 1.624,1.615c0.391,0.691 0.586,1.473 0.586,2.346c0,0.873 -0.195,1.655 -0.586,2.346c-0.391,0.691 -0.933,1.233 -1.624,1.624c-0.691,0.391 -1.468,0.586 -2.329,0.586Zm0,-1.071c0.635,0 1.204,-0.144 1.709,-0.433c0.504,-0.289 0.898,-0.7 1.181,-1.233c0.283,-0.533 0.425,-1.139 0.425,-1.819c0,-0.68 -0.142,-1.286 -0.425,-1.819c-0.283,-0.533 -0.677,-0.943 -1.181,-1.232c-0.505,-0.289 -1.074,-0.434 -1.709,-0.434c-0.635,0 -1.204,0.145 -1.708,0.434c-0.505,0.289 -0.901,0.699 -1.19,1.232c-0.289,0.533 -0.434,1.139 -0.434,1.819c0,0.68 0.145,1.286 0.434,1.819c0.289,0.533 0.685,0.944 1.19,1.233c0.504,0.289 1.073,0.433 1.708,0.433Z" style="fill:#3d3d3d;fill-rule:nonzero;"/><path d="M123.653,86.809c0.283,-0.601 0.706,-1.054 1.267,-1.36c0.561,-0.306 1.255,-0.459 2.082,-0.459l0,1.173l-0.289,-0.017c-0.941,0 -1.677,0.289 -2.21,0.867c-0.533,0.578 -0.799,1.388 -0.799,2.431l0,4.556l-1.207,0l0,-8.942l1.156,0l0,1.751Z" style="fill:#3d3d3d;fill-rule:nonzero;"/><path d="M135.128,93.456c-0.227,0.204 -0.507,0.36 -0.841,0.468c-0.335,0.107 -0.683,0.161 -1.046,0.161c-0.839,0 -1.485,-0.227 -1.938,-0.68c-0.453,-0.453 -0.68,-1.094 -0.68,-1.921l0,-5.406l-1.598,0l0,-1.02l1.598,0l0,-1.955l1.207,0l0,1.955l2.72,0l0,1.02l-2.72,0l0,5.338c0,0.533 0.133,0.938 0.4,1.216c0.266,0.277 0.648,0.416 1.147,0.416c0.249,0 0.49,-0.04 0.722,-0.119c0.233,-0.079 0.434,-0.193 0.604,-0.34l0.425,0.867Z" style="fill:#3d3d3d;fill-rule:nonzero;"/><path d="M146.229,85.058l0,8.942l-1.156,0l0,-1.632c-0.317,0.544 -0.754,0.966 -1.309,1.267c-0.555,0.3 -1.19,0.45 -1.904,0.45c-1.167,0 -2.088,-0.326 -2.762,-0.977c-0.675,-0.652 -1.012,-1.607 -1.012,-2.865l0,-5.185l1.207,0l0,5.066c0,0.941 0.232,1.655 0.697,2.142c0.465,0.487 1.128,0.731 1.989,0.731c0.941,0 1.683,-0.286 2.227,-0.858c0.544,-0.573 0.816,-1.369 0.816,-2.389l0,-4.692l1.207,0Z" style="fill:#3d3d3d;fill-rule:nonzero;"/><path d="M155.018,84.99c1.122,0 2.015,0.326 2.678,0.978c0.663,0.651 0.994,1.6 0.994,2.847l0,5.185l-1.207,0l0,-5.066c0,-0.929 -0.232,-1.638 -0.697,-2.125c-0.465,-0.487 -1.128,-0.731 -1.989,-0.731c-0.963,0 -1.725,0.286 -2.286,0.859c-0.561,0.572 -0.842,1.362 -0.842,2.371l0,4.692l-1.207,0l0,-8.942l1.156,0l0,1.649c0.329,-0.544 0.785,-0.966 1.369,-1.266c0.583,-0.301 1.26,-0.451 2.031,-0.451Z" style="fill:#3d3d3d;fill-rule:nonzero;"/><path d="M162.821,85.058l1.207,0l0,8.942l-1.207,0l0,-8.942Zm0.612,-1.955c-0.249,0 -0.459,-0.085 -0.629,-0.255c-0.17,-0.17 -0.255,-0.374 -0.255,-0.612c0,-0.227 0.085,-0.425 0.255,-0.595c0.17,-0.17 0.38,-0.255 0.629,-0.255c0.249,0 0.459,0.082 0.629,0.246c0.17,0.165 0.255,0.36 0.255,0.587c0,0.249 -0.085,0.459 -0.255,0.629c-0.17,0.17 -0.38,0.255 -0.629,0.255Z" style="fill:#3d3d3d;fill-rule:nonzero;"/><path d="M172.953,93.456c-0.227,0.204 -0.507,0.36 -0.841,0.468c-0.335,0.107 -0.683,0.161 -1.046,0.161c-0.839,0 -1.485,-0.227 -1.938,-0.68c-0.453,-0.453 -0.68,-1.094 -0.68,-1.921l0,-5.406l-1.598,0l0,-1.02l1.598,0l0,-1.955l1.207,0l0,1.955l2.72,0l0,1.02l-2.72,0l0,5.338c0,0.533 0.133,0.938 0.4,1.216c0.266,0.277 0.648,0.416 1.147,0.416c0.249,0 0.49,-0.04 0.723,-0.119c0.232,-0.079 0.433,-0.193 0.603,-0.34l0.425,0.867Z" style="fill:#3d3d3d;fill-rule:nonzero;"/><path d="M183.34,85.058l-4.471,10.013c-0.363,0.839 -0.782,1.434 -1.258,1.785c-0.476,0.351 -1.048,0.527 -1.717,0.527c-0.431,0 -0.833,-0.068 -1.207,-0.204c-0.374,-0.136 -0.697,-0.34 -0.969,-0.612l0.561,-0.901c0.453,0.453 0.997,0.68 1.632,0.68c0.408,0 0.757,-0.113 1.046,-0.34c0.289,-0.227 0.558,-0.612 0.807,-1.156l0.391,-0.867l-3.995,-8.925l1.258,0l3.366,7.599l3.366,-7.599l1.19,0Z" style="fill:#3d3d3d;fill-rule:nonzero;"/><path d="M191.194,85.058l1.207,0l0,8.942l-1.207,0l0,-8.942Zm0.612,-1.955c-0.249,0 -0.459,-0.085 -0.629,-0.255c-0.17,-0.17 -0.255,-0.374 -0.255,-0.612c0,-0.227 0.085,-0.425 0.255,-0.595c0.17,-0.17 0.38,-0.255 0.629,-0.255c0.249,0 0.459,0.082 0.629,0.246c0.17,0.165 0.255,0.36 0.255,0.587c0,0.249 -0.085,0.459 -0.255,0.629c-0.17,0.17 -0.38,0.255 -0.629,0.255Z" style="fill:#3d3d3d;fill-rule:nonzero;"/><path d="M199.014,94.085c-0.725,0 -1.419,-0.105 -2.082,-0.315c-0.663,-0.209 -1.182,-0.473 -1.556,-0.79l0.544,-0.952c0.374,0.295 0.844,0.535 1.411,0.722c0.567,0.188 1.156,0.281 1.768,0.281c0.816,0 1.419,-0.128 1.811,-0.383c0.391,-0.255 0.586,-0.614 0.586,-1.079c0,-0.329 -0.108,-0.587 -0.323,-0.774c-0.215,-0.187 -0.487,-0.328 -0.816,-0.425c-0.329,-0.096 -0.765,-0.189 -1.309,-0.28c-0.725,-0.136 -1.309,-0.275 -1.751,-0.417c-0.442,-0.141 -0.819,-0.382 -1.131,-0.722c-0.311,-0.34 -0.467,-0.81 -0.467,-1.411c0,-0.748 0.312,-1.36 0.935,-1.836c0.623,-0.476 1.49,-0.714 2.601,-0.714c0.578,0 1.156,0.076 1.734,0.229c0.578,0.153 1.054,0.355 1.428,0.604l-0.527,0.969c-0.737,-0.51 -1.615,-0.765 -2.635,-0.765c-0.771,0 -1.352,0.136 -1.743,0.408c-0.391,0.272 -0.586,0.629 -0.586,1.071c0,0.34 0.111,0.612 0.332,0.816c0.22,0.204 0.495,0.354 0.824,0.45c0.329,0.097 0.782,0.196 1.36,0.298c0.714,0.136 1.286,0.272 1.717,0.408c0.431,0.136 0.799,0.368 1.105,0.697c0.306,0.329 0.459,0.782 0.459,1.36c0,0.782 -0.326,1.402 -0.978,1.861c-0.651,0.459 -1.555,0.689 -2.711,0.689Z" style="fill:#3d3d3d;fill-rule:nonzero;"/><path d="M214.042,82.321c-0.521,0 -0.915,0.142 -1.181,0.425c-0.267,0.283 -0.4,0.703 -0.4,1.258l0,1.054l2.754,0l0,1.02l-2.72,0l0,7.922l-1.207,0l0,-7.922l-1.598,0l0,-1.02l1.598,0l0,-1.105c0,-0.816 0.235,-1.462 0.706,-1.938c0.47,-0.476 1.136,-0.714 1.997,-0.714c0.34,0 0.669,0.048 0.986,0.145c0.317,0.096 0.584,0.235 0.799,0.416l-0.408,0.901c-0.351,-0.295 -0.793,-0.442 -1.326,-0.442Z" style="fill:#3d3d3d;fill-rule:nonzero;"/><path d="M221.199,94.085c-0.861,0 -1.638,-0.196 -2.329,-0.587c-0.691,-0.391 -1.235,-0.932 -1.632,-1.623c-0.397,-0.691 -0.595,-1.473 -0.595,-2.346c0,-0.873 0.198,-1.655 0.595,-2.346c0.397,-0.691 0.941,-1.23 1.632,-1.615c0.691,-0.385 1.468,-0.578 2.329,-0.578c0.861,0 1.638,0.193 2.329,0.578c0.691,0.385 1.233,0.924 1.624,1.615c0.391,0.691 0.586,1.473 0.586,2.346c0,0.873 -0.195,1.655 -0.586,2.346c-0.391,0.691 -0.933,1.233 -1.624,1.624c-0.691,0.391 -1.468,0.586 -2.329,0.586Zm0,-1.071c0.635,0 1.204,-0.144 1.709,-0.433c0.504,-0.289 0.898,-0.7 1.181,-1.233c0.283,-0.533 0.425,-1.139 0.425,-1.819c0,-0.68 -0.142,-1.286 -0.425,-1.819c-0.283,-0.533 -0.677,-0.943 -1.181,-1.232c-0.505,-0.289 -1.074,-0.434 -1.709,-0.434c-0.635,0 -1.204,0.145 -1.708,0.434c-0.505,0.289 -0.901,0.699 -1.19,1.232c-0.289,0.533 -0.434,1.139 -0.434,1.819c0,0.68 0.145,1.286 0.434,1.819c0.289,0.533 0.685,0.944 1.19,1.233c0.504,0.289 1.073,0.433 1.708,0.433Z" style="fill:#3d3d3d;fill-rule:nonzero;"/><path d="M230.209,86.809c0.283,-0.601 0.706,-1.054 1.267,-1.36c0.561,-0.306 1.255,-0.459 2.082,-0.459l0,1.173l-0.289,-0.017c-0.941,0 -1.677,0.289 -2.21,0.867c-0.533,0.578 -0.799,1.388 -0.799,2.431l0,4.556l-1.207,0l0,-8.942l1.156,0l0,1.751Z" style="fill:#3d3d3d;fill-rule:nonzero;"/><path d="M250.694,92.912l0,1.088l-8.415,0l0,-11.9l8.16,0l0,1.088l-6.902,0l0,4.233l6.154,0l0,1.071l-6.154,0l0,4.42l7.157,0Z" style="fill:#3d3d3d;fill-rule:nonzero;"/><path d="M261.574,85.058l-3.978,8.942l-1.241,0l-3.961,-8.942l1.258,0l3.349,7.616l3.383,-7.616l1.19,0Z" style="fill:#3d3d3d;fill-rule:nonzero;"/><path d="M271.655,89.903l-7.48,0c0.068,0.929 0.425,1.68 1.071,2.252c0.646,0.573 1.462,0.859 2.448,0.859c0.555,0 1.065,-0.099 1.53,-0.297c0.465,-0.199 0.867,-0.491 1.207,-0.876l0.68,0.782c-0.397,0.476 -0.892,0.839 -1.487,1.088c-0.595,0.249 -1.25,0.374 -1.964,0.374c-0.918,0 -1.731,-0.195 -2.439,-0.586c-0.709,-0.391 -1.261,-0.933 -1.658,-1.624c-0.397,-0.691 -0.595,-1.473 -0.595,-2.346c0,-0.873 0.19,-1.655 0.57,-2.346c0.379,-0.691 0.901,-1.23 1.564,-1.615c0.663,-0.385 1.408,-0.578 2.235,-0.578c0.827,0 1.57,0.193 2.227,0.578c0.657,0.385 1.173,0.921 1.547,1.607c0.374,0.685 0.561,1.47 0.561,2.354l-0.017,0.374Zm-4.318,-3.876c-0.861,0 -1.584,0.275 -2.167,0.825c-0.584,0.549 -0.916,1.266 -0.995,2.15l6.341,0c-0.079,-0.884 -0.411,-1.601 -0.994,-2.15c-0.584,-0.55 -1.312,-0.825 -2.185,-0.825Z" style="fill:#3d3d3d;fill-rule:nonzero;"/><path d="M276.143,86.809c0.283,-0.601 0.706,-1.054 1.267,-1.36c0.561,-0.306 1.255,-0.459 2.082,-0.459l0,1.173l-0.289,-0.017c-0.941,0 -1.677,0.289 -2.21,0.867c-0.533,0.578 -0.799,1.388 -0.799,2.431l0,4.556l-1.207,0l0,-8.942l1.156,0l0,1.751Z" style="fill:#3d3d3d;fill-rule:nonzero;"/><path d="M290.423,85.058l-4.471,10.013c-0.363,0.839 -0.782,1.434 -1.258,1.785c-0.476,0.351 -1.048,0.527 -1.717,0.527c-0.431,0 -0.833,-0.068 -1.207,-0.204c-0.374,-0.136 -0.697,-0.34 -0.969,-0.612l0.561,-0.901c0.453,0.453 0.997,0.68 1.632,0.68c0.408,0 0.757,-0.113 1.046,-0.34c0.289,-0.227 0.558,-0.612 0.807,-1.156l0.391,-0.867l-3.995,-8.925l1.258,0l3.366,7.599l3.366,-7.599l1.19,0Z" style="fill:#3d3d3d;fill-rule:nonzero;"/><path d="M296.373,94.085c-0.861,0 -1.638,-0.196 -2.329,-0.587c-0.691,-0.391 -1.235,-0.932 -1.632,-1.623c-0.397,-0.691 -0.595,-1.473 -0.595,-2.346c0,-0.873 0.198,-1.655 0.595,-2.346c0.397,-0.691 0.941,-1.23 1.632,-1.615c0.691,-0.385 1.468,-0.578 2.329,-0.578c0.861,0 1.638,0.193 2.329,0.578c0.691,0.385 1.233,0.924 1.624,1.615c0.391,0.691 0.586,1.473 0.586,2.346c0,0.873 -0.195,1.655 -0.586,2.346c-0.391,0.691 -0.933,1.233 -1.624,1.624c-0.691,0.391 -1.468,0.586 -2.329,0.586Zm0,-1.071c0.635,0 1.204,-0.144 1.709,-0.433c0.504,-0.289 0.898,-0.7 1.181,-1.233c0.283,-0.533 0.425,-1.139 0.425,-1.819c0,-0.68 -0.142,-1.286 -0.425,-1.819c-0.283,-0.533 -0.677,-0.943 -1.181,-1.232c-0.505,-0.289 -1.074,-0.434 -1.709,-0.434c-0.635,0 -1.204,0.145 -1.708,0.434c-0.505,0.289 -0.901,0.699 -1.19,1.232c-0.289,0.533 -0.434,1.139 -0.434,1.819c0,0.68 0.145,1.286 0.434,1.819c0.289,0.533 0.685,0.944 1.19,1.233c0.504,0.289 1.073,0.433 1.708,0.433Z" style="fill:#3d3d3d;fill-rule:nonzero;"/><path d="M308.783,84.99c1.122,0 2.015,0.326 2.678,0.978c0.663,0.651 0.994,1.6 0.994,2.847l0,5.185l-1.207,0l0,-5.066c0,-0.929 -0.232,-1.638 -0.697,-2.125c-0.465,-0.487 -1.128,-0.731 -1.989,-0.731c-0.963,0 -1.725,0.286 -2.286,0.859c-0.561,0.572 -0.842,1.362 -0.842,2.371l0,4.692l-1.207,0l0,-8.942l1.156,0l0,1.649c0.329,-0.544 0.785,-0.966 1.369,-1.266c0.583,-0.301 1.26,-0.451 2.031,-0.451Z" style="fill:#3d3d3d;fill-rule:nonzero;"/><path d="M324.406,89.903l-7.48,0c0.068,0.929 0.425,1.68 1.071,2.252c0.646,0.573 1.462,0.859 2.448,0.859c0.555,0 1.065,-0.099 1.53,-0.297c0.465,-0.199 0.867,-0.491 1.207,-0.876l0.68,0.782c-0.397,0.476 -0.892,0.839 -1.487,1.088c-0.595,0.249 -1.25,0.374 -1.964,0.374c-0.918,0 -1.731,-0.195 -2.439,-0.586c-0.709,-0.391 -1.261,-0.933 -1.658,-1.624c-0.397,-0.691 -0.595,-1.473 -0.595,-2.346c0,-0.873 0.19,-1.655 0.57,-2.346c0.379,-0.691 0.901,-1.23 1.564,-1.615c0.663,-0.385 1.408,-0.578 2.235,-0.578c0.827,0 1.57,0.193 2.227,0.578c0.657,0.385 1.173,0.921 1.547,1.607c0.374,0.685 0.561,1.47 0.561,2.354l-0.017,0.374Zm-4.318,-3.876c-0.861,0 -1.584,0.275 -2.167,0.825c-0.584,0.549 -0.916,1.266 -0.995,2.15l6.341,0c-0.079,-0.884 -0.411,-1.601 -0.994,-2.15c-0.584,-0.55 -1.312,-0.825 -2.185,-0.825Z" style="fill:#3d3d3d;fill-rule:nonzero;"/></g></g><g><path d="M298.963,54.951c0,0 2.4,-35.863 41.3,-34.9l5.659,-17.051c0,0 -43.87,0.993 -46.959,51.951Z" style="fill:#1f9ece;"/><path d="M301.572,64.743c0,0 7.5,-21.133 26.958,-18.262l3.044,-7.827c0,0 -23.804,-2.871 -30.002,26.089Z" style="fill:#1f9ece;"/><path d="M300.702,58.3c0,0 6,-26.369 32.176,-22.688l4.783,-12.175c0,0 -32.147,-1.837 -36.959,34.863Z" style="fill:#1f9ece;"/></g></g></svg>